<?xml version="1.0" encoding="utf-8"?>
<!-- Generator: Adobe Illustrator 24.0.1, SVG Export Plug-In . SVG Version: 6.00 Build 0)  -->
<svg version="1.1" id="Layer_1" xmlns="http://www.w3.org/2000/svg" xmlns:xlink="http://www.w3.org/1999/xlink" x="0px" y="0px"
	 viewBox="0 0 102.3 102.3" style="enable-background:new 0 0 102.3 102.3;" xml:space="preserve">
<style type="text/css">
	.st0{fill:#FFFFFF;}
</style>
<g>
	<g>
		<path class="st0" d="M93.4,102.3H8.9c-4.9,0-8.9-4-8.9-8.9V8.9C0,4,4,0,8.9,0h84.5c4.9,0,8.9,4,8.9,8.9v84.5
			C102.3,98.3,98.3,102.3,93.4,102.3z M8.9,3.7C6,3.7,3.7,6,3.7,8.9v84.5c0,2.9,2.3,5.2,5.2,5.2h84.5c2.9,0,5.2-2.3,5.2-5.2V8.9
			c0-2.9-2.3-5.2-5.2-5.2C93.4,3.7,8.9,3.7,8.9,3.7z"/>
	</g>
	<g>
		<g>
			<path class="st0" d="M43.6,87.7H18.8c-2.3,0-4.2-2-4.2-4.5V51c0-5.9,4.5-10.8,9.9-10.8h13.3c5.5,0,9.9,4.8,9.9,10.8v32.1
				C47.8,85.7,45.9,87.7,43.6,87.7z M24.6,44c-3.6,0-6.5,3.2-6.5,7v32.1c0,0.4,0.3,0.8,0.7,0.8h24.8c0.4,0,0.7-0.4,0.7-0.8V51
				c0-3.9-2.9-7-6.5-7H24.6z"/>
		</g>
		<g>
			<path class="st0" d="M83.5,87.7H58.8c-2.3,0-4.2-2-4.2-4.5V51c0-5.9,4.5-10.8,9.9-10.8h13.3c5.5,0,9.9,4.8,9.9,10.8v32.1
				C87.7,85.7,85.8,87.7,83.5,87.7z M64.5,44c-3.6,0-6.5,3.2-6.5,7v32.1c0,0.4,0.3,0.8,0.7,0.8h24.8c0.4,0,0.7-0.4,0.7-0.8V51
				c0-3.9-2.9-7-6.5-7H64.5z"/>
		</g>
	</g>
	<g>
		<g>
			<path class="st0" d="M88.5,36.1c-0.4,0-0.8-0.1-1.1-0.4L69.8,19.5L52.3,35.7c-0.7,0.7-1.8,0.6-2.4-0.2c-0.6-0.8-0.5-2,0.2-2.6
				l18.7-17.1c0.6-0.6,1.6-0.6,2.2,0l18.7,17.1c0.7,0.7,0.8,1.8,0.2,2.6C89.5,35.9,89,36.1,88.5,36.1z"/>
		</g>
		<g>
			<path class="st0" d="M51.2,36.1c-0.4,0-0.8-0.1-1.1-0.4L32.5,19.5L15,35.7c-0.7,0.7-1.8,0.6-2.4-0.2c-0.6-0.8-0.5-2,0.2-2.6
				l18.7-17.1c0.6-0.6,1.6-0.6,2.2,0l18.7,17.1c0.7,0.7,0.8,1.8,0.2,2.6C52.2,35.9,51.7,36.1,51.2,36.1z"/>
		</g>
	</g>
</g>
</svg>
