<?xml version="1.0" encoding="utf-8"?>
<!-- Generator: Adobe Illustrator 24.0.1, SVG Export Plug-In . SVG Version: 6.00 Build 0)  -->
<svg version="1.1" id="Layer_1" xmlns="http://www.w3.org/2000/svg" xmlns:xlink="http://www.w3.org/1999/xlink" x="0px" y="0px"
	 viewBox="0 0 200 96.4" style="enable-background:new 0 0 200 96.4;" xml:space="preserve">
<style type="text/css">
	.st0{fill:#6772E5;}
	.st1{fill:#FFFFFF;}
</style>
<path class="st0" d="M151.8,96.4H48.2C21.6,96.4,0,74.8,0,48.2v0C0,21.6,21.6,0,48.2,0h103.6C178.4,0,200,21.6,200,48.2v0
	C200,74.8,178.4,96.4,151.8,96.4z"/>
<g>
	<path class="st1" d="M36.9,41.6c0-1.6,1.3-2.2,3.5-2.2c3.1,0,7,0.9,10.1,2.6v-9.6c-3.4-1.3-6.7-1.9-10.1-1.9
		c-8.3,0-13.8,4.3-13.8,11.5c0,11.3,15.5,9.5,15.5,14.3c0,1.9-1.6,2.5-3.9,2.5c-3.4,0-7.7-1.4-11.1-3.3v9.7
		c3.8,1.6,7.6,2.3,11.1,2.3c8.5,0,14.3-4.2,14.3-11.5C52.4,44,36.9,46.2,36.9,41.6L36.9,41.6z M64.5,22.4l-10,2.1l0,32.7
		c0,6,4.5,10.5,10.6,10.5c3.3,0,5.8-0.6,7.1-1.3V58c-1.3,0.5-7.8,2.4-7.8-3.6V39.9h7.8v-8.7h-7.8L64.5,22.4z M84.9,34.3l-0.7-3h-8.8
		v35.7h10.2V42.7c2.4-3.1,6.5-2.6,7.8-2.1v-9.4C92,30.8,87.3,29.9,84.9,34.3L84.9,34.3z M95.8,31.2h10.2v35.7H95.8L95.8,31.2
		L95.8,31.2z M95.8,28.1l10.2-2.2v-8.3l-10.2,2.2L95.8,28.1L95.8,28.1z M127.4,30.5c-4,0-6.6,1.9-8,3.2l-0.5-2.5h-9v47.6l10.2-2.2
		l0-11.5c1.5,1.1,3.6,2.6,7.2,2.6c7.3,0,14-5.9,14-18.8C141.2,37,134.5,30.5,127.4,30.5L127.4,30.5z M124.9,58.7
		c-2.4,0-3.8-0.9-4.8-1.9l0-15.1c1.1-1.2,2.5-2,4.9-2c3.7,0,6.3,4.2,6.3,9.5C131.2,54.6,128.7,58.7,124.9,58.7L124.9,58.7z
		 M173.4,49.2c0-10.4-5.1-18.7-14.7-18.7c-9.7,0-15.6,8.2-15.6,18.6c0,12.3,6.9,18.5,16.9,18.5c4.9,0,8.5-1.1,11.3-2.7v-8.2
		c-2.8,1.4-6,2.2-10,2.2c-4,0-7.5-1.4-7.9-6.2h19.9C173.3,52.3,173.4,50.2,173.4,49.2L173.4,49.2z M153.3,45.4
		c0-4.6,2.8-6.5,5.4-6.5c2.5,0,5.1,1.9,5.1,6.5H153.3z"/>
</g>
</svg>
