<?xml version="1.0" encoding="utf-8"?>
<!-- Generator: Adobe Illustrator 26.0.2, SVG Export Plug-In . SVG Version: 6.00 Build 0)  -->
<svg version="1.1" id="Слой_1" xmlns="http://www.w3.org/2000/svg" xmlns:xlink="http://www.w3.org/1999/xlink" x="0px" y="0px"
	 viewBox="0 0 29 29" style="enable-background:new 0 0 29 29;" xml:space="preserve">
<style type="text/css">
	.st0{fill:#FFF784;}
</style>
<g>
	<circle class="st0" cx="14.5" cy="14.5" r="7"/>
</g>
<g>
	<path class="st0" d="M14.5,25C8.71,25,4,20.29,4,14.5C4,8.71,8.71,4,14.5,4S25,8.71,25,14.5C25,20.29,20.29,25,14.5,25z M14.5,5
		C9.26,5,5,9.26,5,14.5S9.26,24,14.5,24c5.24,0,9.5-4.26,9.5-9.5S19.74,5,14.5,5z"/>
</g>
<g>
	<path class="st0" d="M14.5,29C6.5,29,0,22.5,0,14.5S6.5,0,14.5,0C22.49,0,29,6.5,29,14.5S22.49,29,14.5,29z M14.5,1
		C7.06,1,1,7.06,1,14.5C1,21.94,7.06,28,14.5,28S28,21.94,28,14.5C28,7.06,21.94,1,14.5,1z"/>
</g>
<g>
	<circle class="st0" cx="24" cy="12" r="1.5"/>
</g>
<g>
	<circle class="st0" cx="3" cy="23" r="2.5"/>
</g>
</svg>
