<?xml version="1.0" encoding="utf-8"?>
<!-- Generator: Adobe Illustrator 26.0.2, SVG Export Plug-In . SVG Version: 6.00 Build 0)  -->
<svg version="1.1" id="Слой_1" xmlns="http://www.w3.org/2000/svg" xmlns:xlink="http://www.w3.org/1999/xlink" x="0px" y="0px"
	 viewBox="0 0 29.44 28.63" style="enable-background:new 0 0 29.44 28.63;" xml:space="preserve">
<style type="text/css">
	.st0{fill:#FFF784;}
	.st1{opacity:0.44;}
</style>
<g>
	<circle class="st0" cx="15.19" cy="13.66" r="5.89"/>
	<g class="st1">
		<path class="st0" d="M22.98,0.5c8.42,5.12,8.85,18.77-0.11,23.58c-4.31,2.32-10.09,1.62-13.62-1.89
			C4.04,17.24,6.47,7.05,14.13,6.56c3.37-0.26,6.96,2,7.47,5.43c0.23,1.45-0.17,3.76-1.32,4.54c1.31-2.77,0.54-6.14-2.08-7.46
			c-5.6-3.01-10.94,2.7-9.52,8.31c1.23,5.79,8.6,8.11,13.59,5.54c5.38-2.61,7.56-9.57,5.8-15.11c-0.84-2.87-2.76-5.38-5.21-7.14
			C22.76,0.6,22.87,0.42,22.98,0.5L22.98,0.5z"/>
	</g>
	<g class="st1">
		<path class="st0" d="M26.29,23.95c-6.37,7.52-19.92,5.81-23.28-3.79C1.39,15.54,2.98,9.93,7,7c5.71-4.37,15.39-0.37,14.68,7.27
			c-0.27,3.37-3.07,6.56-6.53,6.53c-1.43,0.02-3.73-0.78-4.28-2.01c2.53,1.73,5.98,1.49,7.7-0.89c3.84-5.06-0.95-11.22-6.72-10.7
			c-5.91,0.31-9.36,7.23-7.6,12.55c1.74,5.73,8.27,8.97,14.02,8.09c2.97-0.38,5.75-1.88,7.87-4.03
			C26.22,23.71,26.38,23.85,26.29,23.95L26.29,23.95z"/>
	</g>
	<g class="st1">
		<path class="st0" d="M11.47,28.3C2.1,25.25-1.44,12.06,6.18,5.32c3.66-3.24,9.45-3.89,13.69-1.29c6.21,3.63,6.17,14.11-1.17,16.34
			c-3.22,1.02-7.23-0.36-8.52-3.58c-0.56-1.3-0.68-3.76,0.24-4.72c-0.64,3.02,0.87,6.08,3.74,6.79c6.14,1.64,10.03-5.13,7.36-10.27
			C18.99,3.25,11.28,2.67,7.01,6.32c-4.64,3.78-5.17,11.05-2.18,16.04c1.48,2.6,3.92,4.61,6.71,5.76
			C11.66,28.15,11.59,28.35,11.47,28.3L11.47,28.3z"/>
	</g>
	<g class="st1">
		<path class="st0" d="M0,12C1.28,2.23,13.59-3.68,21.62,2.57c3.86,3,5.57,8.57,3.78,13.22c-2.43,6.77-12.73,8.66-16.27,1.85
			c-1.6-2.98-0.98-7.17,1.95-9.03c1.15-0.78,3.61-1.37,4.69-0.63c-3.08-0.07-5.82,1.97-5.98,4.92c-0.49,6.33,6.89,8.91,11.45,5.35
			c4.8-3.46,3.94-11.15-0.42-14.67C16.23-0.29,8.98,0.53,4.63,4.39c-2.29,1.93-3.81,4.7-4.43,7.65C0.19,12.17-0.02,12.13,0,12L0,12z
			"/>
	</g>
</g>
</svg>
