<svg xmlns="http://www.w3.org/2000/svg" width="76" height="27" viewBox="0 0 76 27">
  <g id="Сгруппировать_439" data-name="Сгруппировать 439" transform="translate(-709 -1713)">
    <rect id="Прямоугольник_251" data-name="Прямоугольник 251" width="76" height="27" rx="13.5" transform="translate(709 1713)" fill="#c7ffdf"/>
    <path id="cdnlogo.com_stripe" d="M3.291,7.636c0-.507.416-.7,1.106-.7a7.256,7.256,0,0,1,3.226.833V4.709a8.579,8.579,0,0,0-3.226-.6C1.756,4.111,0,5.49,0,7.793c0,3.59,4.943,3.018,4.943,4.566,0,.6-.52.794-1.249.794A8.1,8.1,0,0,1,.143,12.111v3.1a9.018,9.018,0,0,0,3.552.741c2.706,0,4.566-1.34,4.566-3.669C8.248,8.4,3.291,9.093,3.291,7.636Zm8.794-6.127-3.174.676L8.9,12.606a3.269,3.269,0,0,0,3.369,3.343,5.024,5.024,0,0,0,2.277-.429V12.879c-.416.169-2.472.768-2.472-1.158V7.1h2.472V4.332H12.072Zm6.5,3.786-.208-.963h-2.81V15.715h3.252V8A2.294,2.294,0,0,1,21.3,7.324V4.332a2.208,2.208,0,0,0-2.706.963Zm3.5-.963h3.265V15.715H22.089V4.332Zm0-.989,3.265-.7V0L22.089.69V3.343Zm10.056.768A3.674,3.674,0,0,0,29.6,5.126l-.169-.807H26.565V19.488l3.252-.689.013-3.682a3.663,3.663,0,0,0,2.3.82c2.329,0,4.449-1.873,4.449-6-.013-3.773-2.16-5.828-4.436-5.828Zm-.781,8.963a1.944,1.944,0,0,1-1.535-.611l-.013-4.826A1.936,1.936,0,0,1,31.365,7c1.184,0,2,1.327,2,3.031C33.368,11.773,32.562,13.074,31.365,13.074Zm15.468-3.005c0-3.33-1.613-5.958-4.7-5.958s-4.97,2.628-4.97,5.932c0,3.916,2.212,5.893,5.386,5.893a7.254,7.254,0,0,0,3.6-.846v-2.6a6.907,6.907,0,0,1-3.187.716c-1.262,0-2.381-.442-2.524-1.977h6.361c0-.169.026-.846.026-1.158ZM40.406,8.833c0-1.47.9-2.081,1.717-2.081.794,0,1.639.611,1.639,2.081Z" transform="translate(723.723 1717)" fill="#6772e5"/>
  </g>
</svg>
