<?xml version="1.0" encoding="utf-8"?>
<!-- Generator: Adobe Illustrator 26.0.2, SVG Export Plug-In . SVG Version: 6.00 Build 0)  -->
<svg version="1.1" id="Слой_1" xmlns="http://www.w3.org/2000/svg" xmlns:xlink="http://www.w3.org/1999/xlink" x="0px" y="0px"
	 viewBox="0 0 26.26 22.84" style="enable-background:new 0 0 26.26 22.84;" xml:space="preserve">
<style type="text/css">
	.st0{opacity:0.34;}
	.st1{fill:#FFF784;}
</style>
<g class="st0">
	<path class="st1" d="M19.34,9.61c0.43-0.51,0.98-0.94,1.25-1.54c0.55-1.25-0.42-2.77-1.72-3.19c-1.29-0.42-2.72,0.01-3.9,0.7
		c-0.91,0.53-1.73,1.22-2.65,1.74c-3.13,1.79-7.28,1.7-9.88,4.21c-0.65,0.62-1.18,1.46-1.12,2.36c0.09,1.27,1.35,2.18,2.61,2.41
		s2.54-0.01,3.82-0.02c0.27,0,0.56,0.01,0.79,0.16c0.59,0.39,0.35,1.28,0.4,1.99c0.11,1.77,2.23,2.62,4,2.78
		c1.64,0.15,3.55-0.08,4.47-1.44c0.4-0.6,0.54-1.32,0.83-1.98c0.43-0.99,1.14-1.5,1.92-2.18c0.84-0.73,1.2-0.22,0.65-1.15
		c-0.45-0.75-1.69-0.79-2.12-1.75C18.21,11.66,18.65,10.43,19.34,9.61z"/>
</g>
<g class="st0">
	<path class="st1" d="M15.17,2.1c-0.58,0.32-1.12,0.7-1.75,0.92c-0.45,0.16-0.93,0.23-1.37,0.41c-1.17,0.47-1.92,1.61-2.87,2.45
		C7.77,7.12,5.9,7.69,4.28,8.65s-3.12,2.62-2.89,4.49c0.08,0.63,0.35,1.23,0.37,1.87c0.05,1.63-1.5,2.9-1.73,4.51
		c-0.2,1.38,0.75,2.83,2.09,3.21c1.58,0.44,3.16-0.49,4.7-1.03c2.96-1.05,6.52-0.87,8.8-3.03c1.67-1.59,2.21-4.08,3.83-5.72
		c1.32-1.33,3.42-2.25,3.61-4.12c0.17-1.67-1.38-3.29-0.83-4.87c0.36-1.02-0.51-2.5-1.55-3.01C19.24,0.25,16.42,1.4,15.17,2.1z"/>
</g>
<g>
	<path class="st1" d="M12.6,8.17c-0.74,0.74-1.32,1.71-2.28,2.14c-0.7,0.32-1.56,0.31-2.15,0.81c-0.49,0.41-0.67,1.07-0.84,1.68
		c-0.06,0.23-0.12,0.49,0,0.7c0.09,0.15,0.25,0.25,0.36,0.38c0.53,0.67-0.49,1.7-0.11,2.47c0.29,0.6,1.15,0.56,1.8,0.4
		c0.8-0.19,1.59-0.41,2.37-0.66c0.89-0.28,1.8-0.62,2.42-1.32c0.36-0.41,0.6-0.92,0.89-1.38c0.48-0.75,1.12-1.37,1.63-2.1
		c0.65-0.92,2.18-3.73,0.91-4.66C16.22,5.65,13.56,7.21,12.6,8.17z"/>
</g>
<circle class="st1" cx="3.26" cy="3" r="3"/>
<circle class="st1" cx="18.26" cy="20" r="2"/>
<circle class="st1" cx="23.76" cy="18.5" r="2.5"/>
</svg>
